<mxfile host="app.diagrams.net" modified="2022-08-01T06:26:20.517Z" agent="5.0 (Windows NT 10.0; Win64; x64) AppleWebKit/537.36 (KHTML, like Gecko) Chrome/103.0.5060.134 Safari/537.36 OPR/89.0.4447.71" etag="M1Xyzw_Cz2oMHgLzbYlo" version="20.1.2" type="github">
  <diagram id="sycvBjNstspiqrBQMpsx" name="Sayfa -1">
    <mxGraphModel dx="1626" dy="899" grid="1" gridSize="10" guides="1" tooltips="1" connect="1" arrows="1" fold="1" page="1" pageScale="1" pageWidth="1169" pageHeight="827" math="0" shadow="0">
      <root>
        <mxCell id="0" />
        <mxCell id="1" parent="0" />
        <mxCell id="Fd91Rdyj7url4yawaxAD-1" value="University" style="swimlane;fontStyle=1;childLayout=stackLayout;horizontal=1;startSize=30;horizontalStack=0;resizeParent=1;resizeParentMax=0;resizeLast=0;collapsible=1;marginBottom=0;" vertex="1" parent="1">
          <mxGeometry x="510" y="40" width="150" height="100" as="geometry" />
        </mxCell>
        <mxCell id="Fd91Rdyj7url4yawaxAD-5" value="Class" style="swimlane;fontStyle=1;childLayout=stackLayout;horizontal=1;startSize=30;horizontalStack=0;resizeParent=1;resizeParentMax=0;resizeLast=0;collapsible=1;marginBottom=0;" vertex="1" parent="1">
          <mxGeometry x="130" y="40" width="150" height="100" as="geometry" />
        </mxCell>
        <mxCell id="Fd91Rdyj7url4yawaxAD-8" value="" style="rhombus;whiteSpace=wrap;html=1;fontStyle=0;startSize=30;fillColor=#000000;" vertex="1" parent="1">
          <mxGeometry x="500" y="85" width="10" height="10" as="geometry" />
        </mxCell>
        <mxCell id="Fd91Rdyj7url4yawaxAD-14" value="" style="endArrow=none;html=1;rounded=0;exitX=1;exitY=0.5;exitDx=0;exitDy=0;entryX=0;entryY=0.5;entryDx=0;entryDy=0;" edge="1" parent="1" source="Fd91Rdyj7url4yawaxAD-5" target="Fd91Rdyj7url4yawaxAD-8">
          <mxGeometry width="50" height="50" relative="1" as="geometry">
            <mxPoint x="430" y="390" as="sourcePoint" />
            <mxPoint x="480" y="340" as="targetPoint" />
          </mxGeometry>
        </mxCell>
        <mxCell id="Fd91Rdyj7url4yawaxAD-15" value="Department" style="swimlane;fontStyle=1;childLayout=stackLayout;horizontal=1;startSize=30;horizontalStack=0;resizeParent=1;resizeParentMax=0;resizeLast=0;collapsible=1;marginBottom=0;" vertex="1" parent="1">
          <mxGeometry x="130" y="240" width="150" height="100" as="geometry" />
        </mxCell>
        <mxCell id="Fd91Rdyj7url4yawaxAD-16" value="Employee" style="swimlane;fontStyle=1;childLayout=stackLayout;horizontal=1;startSize=30;horizontalStack=0;resizeParent=1;resizeParentMax=0;resizeLast=0;collapsible=1;marginBottom=0;" vertex="1" parent="1">
          <mxGeometry x="930" y="40" width="150" height="100" as="geometry" />
        </mxCell>
        <mxCell id="Fd91Rdyj7url4yawaxAD-17" value="Office" style="swimlane;fontStyle=1;childLayout=stackLayout;horizontal=1;startSize=30;horizontalStack=0;resizeParent=1;resizeParentMax=0;resizeLast=0;collapsible=1;marginBottom=0;" vertex="1" parent="1">
          <mxGeometry x="510" y="240" width="150" height="100" as="geometry" />
        </mxCell>
        <mxCell id="Fd91Rdyj7url4yawaxAD-18" value="" style="rhombus;whiteSpace=wrap;html=1;fontStyle=0;startSize=30;fillColor=#000000;" vertex="1" parent="1">
          <mxGeometry x="500" y="115" width="10" height="10" as="geometry" />
        </mxCell>
        <mxCell id="Fd91Rdyj7url4yawaxAD-19" value="" style="endArrow=none;html=1;rounded=0;" edge="1" parent="1">
          <mxGeometry width="50" height="50" relative="1" as="geometry">
            <mxPoint x="200" y="200" as="sourcePoint" />
            <mxPoint x="400" y="200" as="targetPoint" />
          </mxGeometry>
        </mxCell>
        <mxCell id="Fd91Rdyj7url4yawaxAD-22" value="" style="endArrow=none;html=1;rounded=0;" edge="1" parent="1">
          <mxGeometry width="50" height="50" relative="1" as="geometry">
            <mxPoint x="400" y="120" as="sourcePoint" />
            <mxPoint x="400" y="200" as="targetPoint" />
          </mxGeometry>
        </mxCell>
        <mxCell id="Fd91Rdyj7url4yawaxAD-23" value="" style="endArrow=none;html=1;rounded=0;" edge="1" parent="1">
          <mxGeometry width="50" height="50" relative="1" as="geometry">
            <mxPoint x="400" y="119.80000000000001" as="sourcePoint" />
            <mxPoint x="500" y="120" as="targetPoint" />
          </mxGeometry>
        </mxCell>
        <mxCell id="Fd91Rdyj7url4yawaxAD-24" value="&lt;b&gt;1..*&lt;/b&gt;" style="text;html=1;strokeColor=none;fillColor=none;align=center;verticalAlign=middle;whiteSpace=wrap;rounded=0;" vertex="1" parent="1">
          <mxGeometry x="264" y="67" width="60" height="30" as="geometry" />
        </mxCell>
        <mxCell id="Fd91Rdyj7url4yawaxAD-26" value="&lt;span&gt;1..*&lt;/span&gt;" style="text;html=1;strokeColor=none;fillColor=none;align=center;verticalAlign=middle;whiteSpace=wrap;rounded=0;fontStyle=1" vertex="1" parent="1">
          <mxGeometry x="190" y="217" width="60" height="30" as="geometry" />
        </mxCell>
        <mxCell id="Fd91Rdyj7url4yawaxAD-28" value="" style="rhombus;whiteSpace=wrap;html=1;fontStyle=0;startSize=30;fillColor=#000000;" vertex="1" parent="1">
          <mxGeometry x="580" y="140" width="10" height="10" as="geometry" />
        </mxCell>
        <mxCell id="Fd91Rdyj7url4yawaxAD-29" value="" style="endArrow=none;html=1;rounded=0;entryX=0.5;entryY=1;entryDx=0;entryDy=0;exitX=0.5;exitY=0;exitDx=0;exitDy=0;" edge="1" parent="1" source="Fd91Rdyj7url4yawaxAD-17" target="Fd91Rdyj7url4yawaxAD-28">
          <mxGeometry width="50" height="50" relative="1" as="geometry">
            <mxPoint x="585" y="230" as="sourcePoint" />
            <mxPoint x="680" y="190.2" as="targetPoint" />
          </mxGeometry>
        </mxCell>
        <mxCell id="Fd91Rdyj7url4yawaxAD-30" value="&lt;b&gt;1..*&lt;/b&gt;" style="text;html=1;strokeColor=none;fillColor=none;align=center;verticalAlign=middle;whiteSpace=wrap;rounded=0;" vertex="1" parent="1">
          <mxGeometry x="541" y="217" width="60" height="30" as="geometry" />
        </mxCell>
        <mxCell id="Fd91Rdyj7url4yawaxAD-32" value="" style="endArrow=none;html=1;rounded=0;" edge="1" parent="1">
          <mxGeometry width="50" height="50" relative="1" as="geometry">
            <mxPoint x="280" y="309.9999999999999" as="sourcePoint" />
            <mxPoint x="510" y="310" as="targetPoint" />
          </mxGeometry>
        </mxCell>
        <mxCell id="Fd91Rdyj7url4yawaxAD-34" value="&lt;b&gt;1..*&lt;/b&gt;" style="text;html=1;strokeColor=none;fillColor=none;align=center;verticalAlign=middle;whiteSpace=wrap;rounded=0;" vertex="1" parent="1">
          <mxGeometry x="264" y="310" width="60" height="30" as="geometry" />
        </mxCell>
        <mxCell id="Fd91Rdyj7url4yawaxAD-35" value="&lt;b&gt;1..*&lt;/b&gt;" style="text;html=1;strokeColor=none;fillColor=none;align=center;verticalAlign=middle;whiteSpace=wrap;rounded=0;" vertex="1" parent="1">
          <mxGeometry x="460" y="310" width="60" height="30" as="geometry" />
        </mxCell>
        <mxCell id="Fd91Rdyj7url4yawaxAD-36" value="" style="endArrow=none;html=1;rounded=0;" edge="1" parent="1">
          <mxGeometry width="50" height="50" relative="1" as="geometry">
            <mxPoint x="200" y="240" as="sourcePoint" />
            <mxPoint x="200" y="200" as="targetPoint" />
          </mxGeometry>
        </mxCell>
        <mxCell id="Fd91Rdyj7url4yawaxAD-37" value="" style="endArrow=none;html=1;rounded=0;exitX=1;exitY=0.5;exitDx=0;exitDy=0;entryX=0;entryY=0.5;entryDx=0;entryDy=0;" edge="1" parent="1" source="Fd91Rdyj7url4yawaxAD-38">
          <mxGeometry width="50" height="50" relative="1" as="geometry">
            <mxPoint x="710" y="89.66" as="sourcePoint" />
            <mxPoint x="930" y="89.66" as="targetPoint" />
          </mxGeometry>
        </mxCell>
        <mxCell id="Fd91Rdyj7url4yawaxAD-38" value="" style="rhombus;whiteSpace=wrap;html=1;fontStyle=0;startSize=30;fillColor=#000000;" vertex="1" parent="1">
          <mxGeometry x="660" y="85" width="10" height="10" as="geometry" />
        </mxCell>
        <mxCell id="Fd91Rdyj7url4yawaxAD-39" value="&lt;b&gt;1..*&lt;/b&gt;" style="text;html=1;strokeColor=none;fillColor=none;align=center;verticalAlign=middle;whiteSpace=wrap;rounded=0;" vertex="1" parent="1">
          <mxGeometry x="884" y="67" width="60" height="30" as="geometry" />
        </mxCell>
        <mxCell id="Fd91Rdyj7url4yawaxAD-44" value="" style="endArrow=none;html=1;rounded=0;" edge="1" parent="1">
          <mxGeometry width="50" height="50" relative="1" as="geometry">
            <mxPoint x="960" y="240" as="sourcePoint" />
            <mxPoint x="960" y="140" as="targetPoint" />
          </mxGeometry>
        </mxCell>
        <mxCell id="Fd91Rdyj7url4yawaxAD-45" value="" style="endArrow=none;html=1;rounded=0;exitX=0.6;exitY=0.05;exitDx=0;exitDy=0;exitPerimeter=0;" edge="1" parent="1" source="Fd91Rdyj7url4yawaxAD-48">
          <mxGeometry width="50" height="50" relative="1" as="geometry">
            <mxPoint x="1050" y="240" as="sourcePoint" />
            <mxPoint x="1050" y="140" as="targetPoint" />
          </mxGeometry>
        </mxCell>
        <mxCell id="Fd91Rdyj7url4yawaxAD-46" value="" style="endArrow=none;html=1;rounded=0;" edge="1" parent="1">
          <mxGeometry width="50" height="50" relative="1" as="geometry">
            <mxPoint x="880" y="240" as="sourcePoint" />
            <mxPoint x="960" y="240" as="targetPoint" />
          </mxGeometry>
        </mxCell>
        <mxCell id="Fd91Rdyj7url4yawaxAD-47" value="Professor" style="swimlane;fontStyle=1;childLayout=stackLayout;horizontal=1;startSize=30;horizontalStack=0;resizeParent=1;resizeParentMax=0;resizeLast=0;collapsible=1;marginBottom=0;" vertex="1" parent="1">
          <mxGeometry x="730" y="190" width="150" height="100" as="geometry" />
        </mxCell>
        <mxCell id="Fd91Rdyj7url4yawaxAD-48" value="Officer" style="swimlane;fontStyle=1;childLayout=stackLayout;horizontal=1;startSize=30;horizontalStack=0;resizeParent=1;resizeParentMax=0;resizeLast=0;collapsible=1;marginBottom=0;" vertex="1" parent="1">
          <mxGeometry x="960" y="275" width="150" height="100" as="geometry" />
        </mxCell>
        <mxCell id="Fd91Rdyj7url4yawaxAD-49" value="" style="endArrow=none;html=1;rounded=0;" edge="1" parent="1">
          <mxGeometry width="50" height="50" relative="1" as="geometry">
            <mxPoint x="660" y="275" as="sourcePoint" />
            <mxPoint x="730" y="275" as="targetPoint" />
          </mxGeometry>
        </mxCell>
        <mxCell id="Fd91Rdyj7url4yawaxAD-50" value="" style="endArrow=none;html=1;rounded=0;" edge="1" parent="1">
          <mxGeometry width="50" height="50" relative="1" as="geometry">
            <mxPoint x="660" y="324" as="sourcePoint" />
            <mxPoint x="960" y="324.40999999999997" as="targetPoint" />
          </mxGeometry>
        </mxCell>
      </root>
    </mxGraphModel>
  </diagram>
</mxfile>
